# xmcd CD database file
#
# Track frame offsets:
#	150
#	19404
#	39682
#	69728
#	88872
#	106849
#	127687
#	147776
#	192995
#	212230
#
# Disc length: 3054 seconds
#
# Revision: 0
# Processed by: cddbd v1.5.1PL0 Copyright (c) Steve Scherf et al.
# Submitted via: CdAid (MTCDDB.DLL V2003.12.21)
#
DISCID=8f0bec0a
DTITLE=Clarence "Tex" Walker - The Blues In Black
DYEAR=2003
DGENRE=Blues
TTITLE0=Your Love Scares Me
TTITLE1=What's Wrong With The Girl
TTITLE2=The Blues In Black
TTITLE3=M-25 Blues
TTITLE4=The Blues Line
TTITLE5=One Day I'll Sing For My Father
TTITLE6=Go On, Tell Somebody
TTITLE7=Can't Stop My Heart From Crying
TTITLE8=State Of Confusion
TTITLE9=Mine Is A Good God
EXTD=ID3G:   0 YEAR: 2003
EXTT0=
EXTT1=
EXTT2=
EXTT3=
EXTT4=
EXTT5=
EXTT6=
EXTT7=
EXTT8=
EXTT9=
PLAYORDER=
